<?xml version="1.0" encoding="UTF-8"?>
<!-- lxlylzl.xyz logo — 亮色模式（深色 logo） -->
<svg xmlns="http://www.w3.org/2000/svg" viewBox="0 0 39.69 39.69" width="140" height="140">
  <g fill="#1a1a1a">
    <circle cx="8.5" cy="8.5" r="8.5" transform="translate(-3.52 8.5) rotate(-45)"/>
    <path d="M33.09,16.79h.01c3.16-.73,5.64-3.22,6.37-6.38.14-.61.22-1.25.22-1.91,0-4.7-3.81-8.5-8.5-8.5-.66,0-1.29.07-1.91.21-3.16.73-5.65,3.22-6.38,6.38h0c-1.86,8.09-8.18,14.42-16.27,16.29-.01,0-.02,0-.03,0-.02,0-.04.01-.07.02-3.13.74-5.59,3.22-6.31,6.36C.07,29.89,0,30.52,0,31.18,0,35.88,3.81,39.68,8.5,39.68c.66,0,1.29-.07,1.91-.22,3.16-.72,5.65-3.21,6.38-6.37h0s0-.01,0-.01c1.87-8.1,8.19-14.43,16.29-16.29h0Z"/>
    <circle cx="31.18" cy="31.18" r="8.5" transform="translate(-6.33 8) rotate(-13.28)"/>
  </g>
</svg>
